<svg xmlns="http://www.w3.org/2000/svg" id="Layer_1" data-name="Layer 1" viewBox="0 0 24 48"><defs><style>.cls-1{fill:#fff;stroke:#e6e6e6;stroke-width:4px;}.cls-2{fill:#b3b3b3;}</style></defs><title>Quantum-Slider-icon-off-right</title><g id="Page-1"><g id="icon"><g id="Group"><path id="Oval" class="cls-1" d="M0,2A22,22,0,0,1,0,46" transform="translate(0 0)"/><path id="Rectangle" class="cls-2" d="M9.29,30.36h0a1,1,0,0,1,0-1.41l5.66-5.66a1,1,0,0,1,1.41,0h0a1,1,0,0,1,0,1.41l-5.66,5.66A1,1,0,0,1,9.29,30.36Zm0-12.73h0a1,1,0,0,1,1.41,0l5.66,5.66a1,1,0,0,1,0,1.41h0a1,1,0,0,1-1.41,0L9.29,19.05A1,1,0,0,1,9.29,17.64Zm0,0h0a1,1,0,0,1,1.41,0l5.66,5.66a1,1,0,0,1,0,1.41h0a1,1,0,0,1-1.41,0L9.29,19.05A1,1,0,0,1,9.29,17.64Z" transform="translate(0 0)"/></g></g></g></svg>