<svg xmlns="http://www.w3.org/2000/svg" id="Layer_1" data-name="Layer 1" viewBox="0 0 24 48"><defs><style>.cls-1{fill:#fff;stroke:#f2bf24;stroke-width:4px;}.cls-2{fill:#f3c12c;}</style></defs><title>Quantum-Slider-icon-off</title><g id="Page-1"><g id="icon"><g id="Group"><path id="Oval" class="cls-1" d="M24,46A22,22,0,0,1,24,2"/><path id="Rectangle" class="cls-2" d="M14.71,17.64h0a1,1,0,0,1,0,1.41L9.05,24.71a1,1,0,0,1-1.41,0h0a1,1,0,0,1,0-1.41l5.66-5.66A1,1,0,0,1,14.71,17.64Zm0,12.73h0a1,1,0,0,1-1.41,0L7.64,24.71a1,1,0,0,1,0-1.41h0a1,1,0,0,1,1.41,0l5.66,5.66A1,1,0,0,1,14.71,30.36Zm0,0h0a1,1,0,0,1-1.41,0L7.64,24.71a1,1,0,0,1,0-1.41h0a1,1,0,0,1,1.41,0l5.66,5.66A1,1,0,0,1,14.71,30.36Z"/></g></g></g></svg>