<svg xmlns="http://www.w3.org/2000/svg" xmlns:xlink="http://www.w3.org/1999/xlink" version="1.1" id="Layer_1" x="0px" y="0px" viewBox="0 0 30 30" style="enable-background:new 0 0 30 30;" xml:space="preserve">
<style type="text/css">
	.st0{fill:#CC9629;}
</style>
<g>
	<path class="st0" d="M15,0C6.7,0,0,6.7,0,15s6.7,15,15,15c4,0,7.8-1.6,10.6-4.4S30,19,30,15C30,6.7,23.3,0,15,0z M15,27.7   C8,27.7,2.3,22,2.3,15S8,2.3,15,2.3c3.4,0,6.6,1.3,9,3.7s3.7,5.6,3.7,9C27.7,22,22,27.7,15,27.7z"/>
	<path class="st0" d="M21.9,13.8h-5.8V8.1l0,0c0-0.6-0.5-1.2-1.2-1.1c-0.6,0-1.2,0.5-1.1,1.2V14H8.1c-0.6,0-1.2,0.5-1.2,1.2   s0.5,1.2,1.2,1.2h5.8v5.8c0,0.6,0.5,1.2,1.2,1.2c0.6,0,1.2-0.5,1.2-1.2v-5.8h5.8c0.6,0,1.2-0.5,1.2-1.2S22.6,13.8,21.9,13.8z"/>
</g>
</svg>